<svg xmlns="http://www.w3.org/2000/svg" width="1400" height="875" viewBox="0 0 1400 875">
  <defs>
    <linearGradient id="bg" x1="0" y1="0" x2="1" y2="1">
      <stop offset="0" stop-color="#0b1220" />
      <stop offset="0.55" stop-color="#1d4ed8" stop-opacity="0.35" />
      <stop offset="1" stop-color="#111827" />
    </linearGradient>
    <radialGradient id="glow" cx="20%" cy="18%" r="70%">
      <stop offset="0" stop-color="#a78bfa" stop-opacity="0.55" />
      <stop offset="1" stop-color="#a78bfa" stop-opacity="0" />
    </radialGradient>
    <linearGradient id="card" x1="0" y1="0" x2="1" y2="1">
      <stop offset="0" stop-color="rgba(255,255,255,0.16)" />
      <stop offset="1" stop-color="rgba(255,255,255,0.06)" />
    </linearGradient>
  </defs>

  <rect width="1400" height="875" rx="0" fill="url(#bg)" />
  <rect width="1400" height="875" rx="0" fill="url(#glow)" />

  <g opacity="0.22">
    <circle cx="1120" cy="160" r="220" fill="#22c55e" />
    <circle cx="1200" cy="130" r="190" fill="#60a5fa" />
  </g>

  <g transform="translate(88 96)">
    <text x="0" y="0" font-family="Inter, system-ui, -apple-system, 'Segoe UI', Roboto, Arial, sans-serif" font-size="34" font-weight="900" fill="rgba(255,255,255,0.86)">
      IGNITE Spring Drop
    </text>
    <text x="0" y="64" font-family="Inter, system-ui, -apple-system, 'Segoe UI', Roboto, Arial, sans-serif" font-size="56" font-weight="900" fill="#ffffff">
      Launch production-ready Flutter apps
    </text>
    <text x="0" y="112" font-family="Inter, system-ui, -apple-system, 'Segoe UI', Roboto, Arial, sans-serif" font-size="56" font-weight="900" fill="#ffffff">
      in minutes
    </text>
    <text x="0" y="158" font-family="Inter, system-ui, -apple-system, 'Segoe UI', Roboto, Arial, sans-serif" font-size="26" font-weight="700" fill="rgba(255,255,255,0.78)">
      New templates, AI modules, and clean architecture kits
    </text>
  </g>

  <!-- Floating UI previews -->
  <g transform="translate(760 206)">
    <g transform="translate(-40 -20)">
      <rect x="0" y="0" width="520" height="320" rx="26" fill="url(#card)" stroke="rgba(255,255,255,0.16)" stroke-width="2" />
      <rect x="24" y="28" width="180" height="18" rx="9" fill="rgba(255,255,255,0.18)" />
      <rect x="24" y="64" width="380" height="14" rx="7" fill="rgba(255,255,255,0.12)" />
      <rect x="24" y="92" width="320" height="14" rx="7" fill="rgba(255,255,255,0.10)" />
      <rect x="24" y="134" width="472" height="98" rx="18" fill="rgba(99, 102, 241, 0.14)" />
      <rect x="44" y="154" width="240" height="14" rx="7" fill="rgba(255,255,255,0.16)" />
      <rect x="44" y="178" width="360" height="14" rx="7" fill="rgba(255,255,255,0.12)" />
      <rect x="24" y="252" width="220" height="46" rx="16" fill="rgba(34, 197, 94, 0.16)" />
      <rect x="260" y="252" width="236" height="46" rx="16" fill="rgba(59, 130, 246, 0.14)" />
    </g>

    <g transform="translate(220 230)" opacity="0.95">
      <rect x="0" y="0" width="420" height="280" rx="26" fill="url(#card)" stroke="rgba(255,255,255,0.14)" stroke-width="2" />
      <rect x="24" y="26" width="260" height="18" rx="9" fill="rgba(255,255,255,0.16)" />
      <rect x="24" y="66" width="360" height="14" rx="7" fill="rgba(255,255,255,0.12)" />
      <rect x="24" y="92" width="320" height="14" rx="7" fill="rgba(255,255,255,0.10)" />
      <rect x="24" y="128" width="372" height="18" rx="9" fill="rgba(34, 197, 94, 0.16)" />
      <rect x="24" y="166" width="372" height="18" rx="9" fill="rgba(59, 130, 246, 0.14)" />
      <rect x="24" y="204" width="280" height="18" rx="9" fill="rgba(244, 63, 94, 0.12)" />
    </g>
  </g>
</svg>

